<svg xmlns="http://www.w3.org/2000/svg" viewBox="0 0 24 24" fill="none">
  <path d="M11 2h2l.5 2.05c.5.12.98.32 1.42.58l1.83-1.04 1.41 1.41-1.04 1.83c.26.44.46.92.58 1.42L22 11v2l-2.05.5a6.1 6.1 0 0 1-.58 1.42l1.04 1.83-1.41 1.41-1.83-1.04c-.44.26-.92.46-1.42.58L13 22h-2l-.5-2.05a6.1 6.1 0 0 1-1.42-.58l-1.83 1.04-1.41-1.41 1.04-1.83a6.1 6.1 0 0 1-.58-1.42L2 13v-2l2.05-.5c.12-.5.32-.98.58-1.42L3.59 7.25l1.41-1.41 1.83 1.04c.44-.26.92-.46 1.42-.58L11 2Z" stroke="#E2E4E9" stroke-width="1.35" stroke-linejoin="round"/>
  <circle cx="12" cy="12" r="3.15" stroke="#E2E4E9" stroke-width="1.35"/>
</svg>
